<?xml version="1.0" encoding="UTF-8" standalone="no"?>
<!-- Created with Inkscape (http://www.inkscape.org/) -->

<svg
   xmlns:dc="http://purl.org/dc/elements/1.1/"
   xmlns:cc="http://creativecommons.org/ns#"
   xmlns:rdf="http://www.w3.org/1999/02/22-rdf-syntax-ns#"
   xmlns:svg="http://www.w3.org/2000/svg"
   xmlns="http://www.w3.org/2000/svg"
   xmlns:sodipodi="http://sodipodi.sourceforge.net/DTD/sodipodi-0.dtd"
   xmlns:inkscape="http://www.inkscape.org/namespaces/inkscape"
   width="6.3499999mm"
   height="6.3499999mm"
   viewBox="0 0 6.3500001 6.35"
   version="1.1"
   id="svg24601"
   inkscape:version="0.92.1 r"
   sodipodi:docname="IDPs.svg">
  <defs
     id="defs24595" />
  <sodipodi:namedview
     id="base"
     pagecolor="#ffffff"
     bordercolor="#666666"
     borderopacity="1.0"
     inkscape:pageopacity="0.0"
     inkscape:pageshadow="2"
     inkscape:zoom="1.6310547"
     inkscape:cx="-241.39613"
     inkscape:cy="-150.06039"
     inkscape:document-units="mm"
     inkscape:current-layer="layer1"
     showgrid="false"
     inkscape:window-width="2554"
     inkscape:window-height="1387"
     inkscape:window-x="0"
     inkscape:window-y="50"
     inkscape:window-maximized="0" />
  <metadata
     id="metadata24598">
    <rdf:RDF>
      <cc:Work
         rdf:about="">
        <dc:format>image/svg+xml</dc:format>
        <dc:type
           rdf:resource="http://purl.org/dc/dcmitype/StillImage" />
        <dc:title></dc:title>
      </cc:Work>
    </rdf:RDF>
  </metadata>
  <g
     inkscape:label="Capa 1"
     inkscape:groupmode="layer"
     id="layer1"
     transform="translate(-100.35534,-129.30462)">
    <g
       style="display:inline"
       id="g45823"
       transform="translate(-65.009237,36.562982)">
      <rect
         y="92.741638"
         x="165.36458"
         height="6.3499999"
         width="6.3499999"
         id="rect45819"
         style="opacity:1;vector-effect:none;fill:#a25fa6;fill-opacity:1;stroke:none;stroke-width:0.26458332;stroke-linecap:butt;stroke-linejoin:miter;stroke-miterlimit:4;stroke-dasharray:0.52916666, 0.52916666;stroke-dashoffset:0;stroke-opacity:1" />
      <g
         id="use45821"
         style="fill:#ffffff;stroke:#000000"
         transform="matrix(0.11126239,0,0,0.11126239,165.75802,93.446613)">
        <title
           id="title43560">Direction Walk</title>
        <path
           inkscape:connector-curvature="0"
           id="path43562"
           style="stroke:none"
           d="m 28,7.6 c 1.98,0 3.6,-1.61 3.6,-3.6 0,-1.99 -1.62,-3.6 -3.6,-3.6 -1.99,0 -3.6,1.61 -3.6,3.6 0,1.99 1.61,3.6 3.6,3.6 z M 28.24,20 H 38 v -3.6 h -7.25 l -4,-6.66 c -0.59,-1 -1.68,-1.66 -2.92,-1.66 -0.34,0 -0.67,0.05 -0.98,0.14 L 12,11.6 V 22 h 3.6 V 14.67 L 19.81,13.36 12,44 h 3.6 L 21.34,27.78 26,34 v 10 h 3.6 V 31.19 l -4.98,-9.08 1.47,-5.74 z" />
      </g>
    </g>
  </g>
</svg>
