<?xml version="1.0" encoding="UTF-8" standalone="no"?>
<!-- Created with Inkscape (http://www.inkscape.org/) -->

<svg
   xmlns:dc="http://purl.org/dc/elements/1.1/"
   xmlns:cc="http://creativecommons.org/ns#"
   xmlns:rdf="http://www.w3.org/1999/02/22-rdf-syntax-ns#"
   xmlns:svg="http://www.w3.org/2000/svg"
   xmlns="http://www.w3.org/2000/svg"
   xmlns:sodipodi="http://sodipodi.sourceforge.net/DTD/sodipodi-0.dtd"
   xmlns:inkscape="http://www.inkscape.org/namespaces/inkscape"
   width="6.3499999mm"
   height="6.3499999mm"
   viewBox="0 0 6.3499999 6.3499999"
   version="1.1"
   id="svg24601"
   inkscape:version="0.92.1 r"
   sodipodi:docname="warning.svg">
  <defs
     id="defs24595" />
  <sodipodi:namedview
     id="base"
     pagecolor="#ffffff"
     bordercolor="#666666"
     borderopacity="1.0"
     inkscape:pageopacity="0.0"
     inkscape:pageshadow="2"
     inkscape:zoom="1.6310547"
     inkscape:cx="-156.56136"
     inkscape:cy="51.474293"
     inkscape:document-units="mm"
     inkscape:current-layer="layer1"
     showgrid="false"
     inkscape:window-width="2554"
     inkscape:window-height="1387"
     inkscape:window-x="0"
     inkscape:window-y="50"
     inkscape:window-maximized="0" />
  <metadata
     id="metadata24598">
    <rdf:RDF>
      <cc:Work
         rdf:about="">
        <dc:format>image/svg+xml</dc:format>
        <dc:type
           rdf:resource="http://purl.org/dc/dcmitype/StillImage" />
        <dc:title></dc:title>
      </cc:Work>
    </rdf:RDF>
  </metadata>
  <g
     inkscape:label="Capa 1"
     inkscape:groupmode="layer"
     id="layer1"
     transform="translate(-77.909477,-156.10257)">
    <g
       style="display:inline"
       id="g45817"
       transform="matrix(3.7795275,0,0,3.7795275,-624.99997,-318.52)">
      <rect
         style="opacity:1;vector-effect:none;fill:#fa5e59;fill-opacity:1;stroke:none;stroke-width:0.26458332;stroke-linecap:butt;stroke-linejoin:miter;stroke-miterlimit:4;stroke-dasharray:0.52916666, 0.52916666;stroke-dashoffset:0;stroke-opacity:1"
         id="rect45813"
         width="6.3499999"
         height="6.3499999"
         x="165.36458"
         y="84.275085" />
      <g
         id="use45815"
         style="fill:#ffffff;stroke:#000000"
         transform="matrix(0.02625573,0,0,0.02625573,167.10537,95.03425)">
        <title
           id="title43477">Whats Hot</title>
        <path
           inkscape:connector-curvature="0"
           id="path43479"
           style="stroke:none"
           d="m 27,1.34 c 0,0 1.48,5.3 1.48,9.6 0,4.12 -2.7,7.47 -6.83,7.47 -4.13,0 -7.25,-3.34 -7.25,-7.47 l 0.05,-0.72 C 10.43,15.03 8,21.23 8,28 8,36.84 15.16,44 24,44 32.84,44 40,36.84 40,28 40,17.21 34.81,7.59 27,1.34 Z M 23.42,38 c -3.56,0 -6.45,-2.81 -6.45,-6.28 0,-3.25 2.09,-5.53 5.63,-6.24 3.54,-0.71 7.2,-2.41 9.23,-5.15 0.78,2.58 1.19,5.3 1.19,8.07 0,5.29 -4.3,9.6 -9.6,9.6 z" />
      </g>
    </g>
    <rect
       y="156.10257"
       x="77.909477"
       height="6.3499999"
       width="6.3499999"
       id="rect45813-6"
       style="opacity:1;vector-effect:none;fill:#fa5e59;fill-opacity:1;stroke:none;stroke-width:0.26458332;stroke-linecap:butt;stroke-linejoin:miter;stroke-miterlimit:4;stroke-dasharray:0.52916666, 0.52916666;stroke-dashoffset:0;stroke-opacity:1" />
    <g
       transform="matrix(0.09215602,0,0,0.09215602,78.872733,157.18839)"
       style="fill:#ffffff;stroke:#000000"
       id="use45815-7">
      <title
         id="title43507">Whats Hot</title>
      <path
         d="m 27,1.34 c 0,0 1.48,5.3 1.48,9.6 0,4.12 -2.7,7.47 -6.83,7.47 -4.13,0 -7.25,-3.34 -7.25,-7.47 l 0.05,-0.72 C 10.43,15.03 8,21.23 8,28 8,36.84 15.16,44 24,44 32.84,44 40,36.84 40,28 40,17.21 34.81,7.59 27,1.34 Z M 23.42,38 c -3.56,0 -6.45,-2.81 -6.45,-6.28 0,-3.25 2.09,-5.53 5.63,-6.24 3.54,-0.71 7.2,-2.41 9.23,-5.15 0.78,2.58 1.19,5.3 1.19,8.07 0,5.29 -4.3,9.6 -9.6,9.6 z"
         style="stroke:none"
         id="path43509"
         inkscape:connector-curvature="0" />
    </g>
  </g>
</svg>
