<?xml version="1.0" encoding="UTF-8" standalone="no"?>
<!-- Created with Inkscape (http://www.inkscape.org/) -->

<svg
   xmlns:dc="http://purl.org/dc/elements/1.1/"
   xmlns:cc="http://creativecommons.org/ns#"
   xmlns:rdf="http://www.w3.org/1999/02/22-rdf-syntax-ns#"
   xmlns:svg="http://www.w3.org/2000/svg"
   xmlns="http://www.w3.org/2000/svg"
   xmlns:sodipodi="http://sodipodi.sourceforge.net/DTD/sodipodi-0.dtd"
   xmlns:inkscape="http://www.inkscape.org/namespaces/inkscape"
   width="88.730003"
   height="100"
   viewBox="0 0 23.47648 26.458334"
   version="1.1"
   id="svg33644"
   sodipodi:docname="logo-navbar.svg"
   inkscape:version="0.92.1 unknown">
  <defs
     id="defs33638" />
  <sodipodi:namedview
     id="base"
     pagecolor="#ffffff"
     bordercolor="#666666"
     borderopacity="1.0"
     inkscape:pageopacity="0.0"
     inkscape:pageshadow="2"
     inkscape:zoom="0.98994949"
     inkscape:cx="-49.586495"
     inkscape:cy="18.933833"
     inkscape:document-units="mm"
     inkscape:current-layer="g43244"
     showgrid="false"
     units="px"
     inkscape:window-width="1718"
     inkscape:window-height="1027"
     inkscape:window-x="2120"
     inkscape:window-y="24"
     inkscape:window-maximized="0">
    <inkscape:grid
       type="xygrid"
       id="grid42911" />
  </sodipodi:namedview>
  <metadata
     id="metadata33641">
    <rdf:RDF>
      <cc:Work
         rdf:about="">
        <dc:format>image/svg+xml</dc:format>
        <dc:type
           rdf:resource="http://purl.org/dc/dcmitype/StillImage" />
        <dc:title />
      </cc:Work>
    </rdf:RDF>
  </metadata>
  <g
     inkscape:label="Layer 1"
     inkscape:groupmode="layer"
     id="layer1"
     transform="translate(0,-270.54166)">
    <g
       id="g43244"
       transform="matrix(2.7728157,0,0,2.7728157,-109.31247,-288.22146)">
      <circle
         r="4.2333331"
         cy="205.74803"
         cx="43.656246"
         id="path43079"
         style="display:inline;opacity:1;vector-effect:none;fill:#0094ab;fill-opacity:1;stroke:none;stroke-width:0.26458332;stroke-linecap:butt;stroke-linejoin:miter;stroke-miterlimit:4;stroke-dasharray:0.52916665, 0.52916664999999996;stroke-dashoffset:0;stroke-opacity:1" />
      <g
         transform="matrix(0.77429064,0,0,0.77429064,36.735981,-16.239897)"
         style="display:inline;fill:#ffffff"
         id="g43073">
        <path
           style="display:inline;fill:#ffffff;stroke-width:0.11718915"
           inkscape:connector-curvature="0"
           d="m 8.9692181,282.61994 c -2.2652652,0 -4.1016186,1.83636 -4.1016186,4.10162 0,2.26527 1.8363534,4.10162 4.1016186,4.10162 2.2652649,0 4.1016179,-1.83635 4.1016179,-4.10162 0,-2.26526 -1.836353,-4.10162 -4.1016179,-4.10162 z m -1.0897359,0.80017 c -0.1654778,0.11578 -0.2524285,0.35051 -0.3945847,0.40348 -0.1482399,0.0552 -0.2709349,-0.0301 -0.4120332,-0.0154 0.2486755,-0.16219 0.5192713,-0.29333 0.8066179,-0.38813 z m 1.0897359,6.77811 c -1.9200266,0 -3.4766464,-1.55651 -3.4766464,-3.47666 0,-1.14318 0.5519578,-2.15733 1.4036851,-2.79097 -0.094922,0.12035 -0.2058967,0.30164 -0.1850384,0.33012 0.064455,0.0879 0.2579329,0.0491 0.3094981,0 0.051548,-0.0491 0.309498,-0.15715 0.4126241,-0.15715 0.1031218,0 0.4120376,0.18656 0.5608602,0.15469 0.2709431,-0.058 0.2456296,-0.25138 0.3461809,-0.3095 0.08414,-0.0486 0.2278172,0 0.3825084,-0.0688 0.1546829,-0.0688 0.096671,-0.42118 -0.033393,-0.51575 -0.086603,-0.0629 -0.2617971,-0.0654 -0.4257499,-0.0475 0.227813,-0.047 0.463714,-0.0717 0.7054794,-0.0717 0.6962177,0 1.3441644,0.20543 1.8879104,0.55794 -0.07323,0.22079 -0.513866,0.019 -0.808482,0.21375 -0.3099689,0.20497 -0.3080968,0.57329 -0.4374703,0.66681 -0.4446163,0.32098 -1.2279001,0.3845 -1.407789,0.45153 -0.1571502,0.0585 -0.3739493,0.15527 -0.3634106,0.35989 0.010084,0.19582 0.1375855,0.35637 0.3493466,0.32813 0.2116414,-0.0283 0.4939456,-0.20813 0.6632876,-0.20813 0.1693378,0 0.2963764,0.26813 0.3951671,0.33868 0.098787,0.0706 0.3669153,0.0565 0.3951672,0.21164 0.028227,0.15516 -0.028269,0.45164 -0.2540688,0.45164 -0.2258252,0 -0.7056075,-0.4234 -0.8468134,-0.4657 -0.1410983,-0.0423 -0.2963722,0.0423 -0.3809833,-0.014 -0.084611,-0.0564 -0.2678972,-0.23872 -0.4374624,-0.21165 -0.2069551,0.0329 -0.2873547,0.22829 -0.3809836,0.30575 -0.1048867,0.0867 -0.3882488,0.1575 -0.4374665,0.31524 -0.070547,0.22582 -0.055929,0.77181 0.046932,1.00196 0.1296133,0.2897 0.9327142,0.51528 1.0537684,0.7151 0.0941,0.15527 -0.065856,0.36691 0.061166,0.53626 0.1270385,0.16933 0.2026194,0.17144 0.2634503,0.24937 0.116132,0.14883 -0.037567,0.38579 0.1410984,0.51751 0.3325798,0.24504 1.0425061,0.0737 1.1572413,-0.25407 0.048631,-0.1391 -0.036534,-0.36047 0.00426,-0.55981 0.028227,-0.13641 0.1953622,-0.32497 0.2493821,-0.4281 0.051797,-0.0988 0.00426,-0.41872 0.1034815,-0.54563 0.098787,-0.12703 0.4092184,-0.16465 0.4750834,-0.20227 0.05483,-0.0313 0.05799,-0.19477 0.112851,-0.22582 0.06433,-0.0364 0.234033,0.0383 0.296376,0 0.06084,-0.0374 0.08191,-0.16887 0.124216,-0.2536 0.04231,-0.0847 0.321338,-0.18504 0.320632,-0.33422 -0.0016,-0.37161 -0.673488,-0.302 -0.684857,-0.47063 -0.01252,-0.18786 0.159733,-0.30141 0.380983,-0.32462 0.166292,-0.0173 0.451411,0.1268 0.493954,0.23989 0.05672,0.15059 -0.04347,0.19149 0.08472,0.33868 0.14426,0.1657 0.407235,0.18445 0.475092,0.29976 0.04894,0.0832 -0.05009,0.17415 0.04705,0.30704 0.03612,0.0494 0.157262,0.12984 0.284069,0.14918 -0.276568,1.64335 -1.705343,2.89575 -3.4274329,2.89575 z"
           id="path33592-3"
           sodipodi:nodetypes="sssssccccccscccscccccsccccccsccscccccccccccccccccscccccccccc"
           inkscape:export-filename="/home/andy/logo.svg.png"
           inkscape:export-xdpi="96"
           inkscape:export-ydpi="96" />
        <path
           style="display:inline;fill:#ffffff;fill-opacity:1;stroke:none;stroke-width:0.17090081px;stroke-linecap:butt;stroke-linejoin:miter;stroke-opacity:1"
           d="m 11.691795,289.45306 c 0,0 1.367205,-3.41802 1.367205,-2.73442 -4e-6,2.73442 -4.1016183,6.83604 -4.1016183,6.83604 0,0 -4.1016227,-4.10162 -4.1016186,-6.83604 0,-0.54922 0.6836045,2.05082 2.4697276,3.58197 0.4344953,0.37249 2.9990963,0.51966 4.3663043,-0.84755 z"
           id="path33618-6"
           inkscape:connector-curvature="0"
           sodipodi:nodetypes="cscssc"
           inkscape:export-filename="/home/andy/logo.svg.png"
           inkscape:export-xdpi="96"
           inkscape:export-ydpi="96" />
      </g>
    </g>
  </g>
</svg>
